
        <svg xmlns="http://www.w3.org/2000/svg" xmlns:xlink="http://www.w3.org/1999/xlink" version="1.1" width="3214.285714285714" height="3029.0973375341728" viewBox="0 0 3214.285714285714 3029.0973375341728">
			
			<g transform="scale(10.714285714285714) translate(10, 10)">
				<defs id="SvgjsDefs2763"/><g id="SvgjsG2764" featureKey="symbolFeature-0" transform="matrix(1.1957184560493026,0,0,1.1957184560493026,87.21714299561101,-11.211612066169316)" fill="#fff"><g xmlns="http://www.w3.org/2000/svg"><g><path d="M51.7262573,22.0078125c-4.2713623,0-7.7328491-3.4483032-7.7328491-7.7196655    c0,2.1422119-0.8620605,4.0623169-2.2597046,5.4598999c-1.397644,1.3977051-3.3308105,2.2597656-5.4599609,2.2597656    c2.1291504,0,4.0623169,0.8621826,5.4599609,2.2597656c1.397644,1.4106445,2.2597046,3.3439941,2.2597046,5.4731445    C43.9934082,25.4692383,47.454895,22.0078125,51.7262573,22.0078125z"/><path d="M31.2402954,16.8431396c0-2.0639648,1.6726074-3.7365723,3.7365112-3.7365723    c-2.0639038,0-3.7365112-1.6662598-3.7365112-3.7301025c0,1.0350952-0.4165039,1.9628906-1.0919189,2.6381836    c-0.675354,0.675415-1.609436,1.0919189-2.6382446,1.0919189c1.0288086,0,1.9628906,0.416626,2.6382446,1.0919189    C30.8237915,14.880127,31.2402954,15.81427,31.2402954,16.8431396z"/><path d="M56.7532959,16.8431396c0-2.0639648,1.6726074-3.7365723,3.7365723-3.7365723    c-2.0639648,0-3.7365723-1.6662598-3.7365723-3.7301025c0,1.0350952-0.4165039,1.9628906-1.0918579,2.6381836    c-0.675354,0.675415-1.6094971,1.0919189-2.6382446,1.0919189c1.0287476,0,1.9628906,0.416626,2.6382446,1.0919189    C56.336792,14.880127,56.7532959,15.81427,56.7532959,16.8431396z"/><path d="M18.1647949,27.2421875c-1.1500244-0.3100586-2.2700195,0.5600586-2.2700195,1.75v0.4799805    c6.0499878,0.9499512,16.0300293,2.9000244,23.6099854,6.1500244    C33.3347778,31.6221924,22.7747803,28.4921875,18.1647949,27.2421875z"/><path d="M72.1047974,29.472168v-0.4799805c0-1.1899414-1.1199951-2.0600586-2.2700195-1.75    c-4.6099854,1.25-15.1599731,4.3699951-21.3300171,8.3699951C56.0947876,32.3721924,66.0447998,30.4321289,72.1047974,29.472168z"/><path d="M13.1647949,31.0722656c-1-0.1401367-1.8900146,0.6398926-1.8900146,1.6499023v0.1101074l27.0599976,4.4699707    C29.6447754,33.6821289,17.744812,31.7321777,13.1647949,31.0722656z"/><path d="M76.7247925,32.8322754V32.722168c0-1.0100098-0.8900146-1.7900391-1.8900146-1.6499023    c-4.5800171,0.6599121-16.5,2.6098633-25.1900024,6.2399902L76.7247925,32.8322754z"/><path d="M4.0198369,36.9145508l4.1191401,32.9857178c0.2802734,2.2442627,2.02948,4.0223389,4.2688599,4.3394775    l30.2185669,4.2780762V40.0380859L6.9140019,34.1330566C5.2620854,33.8598633,3.8123782,35.2531738,4.0198369,36.9145508z"/><path d="M81.0859985,34.1330566l-36.4595947,6.0285645v38.4619141l30.9657593-4.3837891    c2.2393799-0.3171387,3.9885864-2.0952148,4.2688599-4.3394775l4.1191406-32.9857178    C84.1876221,35.2531738,82.737915,33.8598633,81.0859985,34.1330566z"/></g></g></g><g id="SvgjsG2765" featureKey="nameFeature-0" transform="matrix(6.02254143740699,0,0,6.02254143740699,-5.058929982845678,-16.24631586582393)" fill="#fff"><path d="M16.04 30 c-0.16 -2.92 -1.48 -4.64 -4.52 -4.64 c-0.84 0 -1.56 0.12 -2.16 0.36 c-1.84 0.84 -2.52 2.4 -2.52 4.32 c0 0.64 0.08 1.24 0.28 1.76 c0.6 2.08 2.4 2.84 4.4 2.84 c3.04 0 4.52 -1.64 4.52 -4.64 z M23.64 40 l-6 0 c-0.4 -1 -0.76 -2 -1 -3.04 c-1.36 2.24 -3.44 3.24 -6 3.24 c-5.72 0 -9.8 -4.8 -9.8 -10.28 c0 -6.32 4.72 -10.12 10.68 -10.12 c6.36 0 10.36 4.08 10.52 10.2 c0.04 0.52 0.04 1.12 0.04 1.84 c0 2.8 0.44 5.6 1.56 8.16 z M47.331999999999994 30 l0 10 l-6 0 l0 -10 c0 -2.76 -1.28 -4.64 -4.2 -4.64 c-2.88 0 -4.2 1.92 -4.2 4.64 l0 10 l-6 0 l0 -10 c0 -6.16 4.24 -10.2 10.2 -10.2 c6.2 0 10.2 4.24 10.2 10.2 z"/></g><g id="SvgjsG2766" featureKey="sloganFeature-0" transform="matrix(1.0911037319390415,0,0,1.0911037319390415,59.93453344830801,240.69727785968124)" fill="#fff"><path d="M8.14 20 l-1.1 -4.42 l-4.88 0 l-1.1 4.42 l-1 0 l4.14 -15 l0.86 0 l4.12 15 l-1.04 0 z M4.66 5.9399999999999995 l-2.26 8.68 l4.38 0 z M18.6185 16.22 c-0.01334 0.66666 -0.076582 1.25 -0.18992 1.75 s-0.30668 0.91334 -0.58002 1.24 s-0.63334 0.57 -1.08 0.73 s-1.01 0.24 -1.69 0.24 c-1.1733 0 -2.0266 -0.32666 -2.56 -0.98 s-0.8 -1.6467 -0.8 -2.98 l0 -7.4 c0 -1.3333 0.27 -2.3266 0.81 -2.98 s1.4633 -0.98 2.77 -0.98 c1.1733 0 2.0134 0.32666 2.52 0.98 s0.77332 1.6467 0.79998 2.98 l0.02 0.92 l-0.92 0 l-0.02 -1.16 c0 -0.33334 -0.03334 -0.67 -0.1 -1.01 s-0.18666 -0.65 -0.36 -0.93 s-0.41668 -0.50666 -0.73002 -0.68 s-0.73 -0.26 -1.25 -0.26 c-0.50666 0 -0.93 0.08 -1.27 0.24 s-0.61 0.38 -0.81 0.66 s-0.33666 0.61 -0.41 0.99 s-0.11 0.79 -0.11 1.23 l0.04 7.5 c0 0.92 0.17 1.64 0.51 2.16 s0.96334 0.78 1.87 0.78 c0.52 0 0.95 -0.07 1.29 -0.21 s0.60666 -0.33666 0.8 -0.59 s0.33 -0.56 0.41 -0.92 s0.12 -0.75334 0.12 -1.18 l0.02 -1.3 l0.92 0 z M29.897000000000002 20 l-1.1 -4.42 l-4.88 0 l-1.1 4.42 l-1 0 l4.14 -15 l0.86 0 l4.12 15 l-1.04 0 z M26.417 5.9399999999999995 l-2.26 8.68 l4.38 0 z M41.3755 16.96 c-0.09334 0.41334 -0.23 0.80334 -0.41 1.17 s-0.41666 0.69 -0.71 0.97 s-0.65 0.5 -1.07 0.66 s-0.91 0.24 -1.47 0.24 l-3.64 0 l0 -15 l3.5 0 c1.0133 0 1.8633 0.23666 2.55 0.71 s1.13 1.27 1.33 2.39 c0.04 0.21334 0.07334 0.54334 0.1 0.99 s0.04666 0.96 0.06 1.54 s0.02 1.19 0.02 1.83 s-0.01 1.2533 -0.03 1.84 s-0.05 1.1167 -0.09 1.59 s-0.08666 0.83 -0.14 1.07 z M37.395500000000006 6.02 l-2.32 0.000019531 l0 12.9 l2.6 0 c0.36 0 0.68 -0.06334 0.96 -0.19 s0.53 -0.29332 0.75 -0.49998 s0.40334 -0.43666 0.55 -0.69 s0.26666 -0.5 0.36 -0.74 c0.06666 -0.17334 0.12332 -0.48668 0.16998 -0.94002 s0.08 -0.97 0.1 -1.55 s0.03 -1.1967 0.03 -1.85 s-0.01 -1.2667 -0.03 -1.84 s-0.05 -1.08 -0.09 -1.52 s-0.08666 -0.74666 -0.14 -0.92 c-0.08 -0.24 -0.18666 -0.49 -0.32 -0.75 s-0.31 -0.49334 -0.53 -0.7 s-0.5 -0.37666 -0.84 -0.51 s-0.75666 -0.2 -1.25 -0.2 z M45.234 20 l0 -15 l7.36 0 l0 1.16 l-6.32 0 l0 5.7 l6.26 0 l0 0.92 l-6.26 0 l0 6.06 l6.46 0 l0 1.16 l-7.5 0 z M65.5325 20 l0 -12.72 l-3.62 8.66 l-1.12 -0.02 l-3.54 -8.66 l0 12.74 l-0.98 0 l0 -15 l1.04 0 l4.06 9.76 l4.08 -9.76 l1.06 0 l0 15 l-0.98 0 z M70.631 20 l0 -15 l1.28 0 l0 15 l-1.28 0 z M82.80950000000001 16.22 c-0.01334 0.66666 -0.076582 1.25 -0.18992 1.75 s-0.30668 0.91334 -0.58002 1.24 s-0.63334 0.57 -1.08 0.73 s-1.01 0.24 -1.69 0.24 c-1.1733 0 -2.0266 -0.32666 -2.56 -0.98 s-0.8 -1.6467 -0.8 -2.98 l0 -7.4 c0 -1.3333 0.27 -2.3266 0.81 -2.98 s1.4633 -0.98 2.77 -0.98 c1.1733 0 2.0134 0.32666 2.52 0.98 s0.77332 1.6467 0.79998 2.98 l0.02 0.92 l-0.92 0 l-0.02 -1.16 c0 -0.33334 -0.03334 -0.67 -0.1 -1.01 s-0.18666 -0.65 -0.36 -0.93 s-0.41668 -0.50666 -0.73002 -0.68 s-0.73 -0.26 -1.25 -0.26 c-0.50666 0 -0.93 0.08 -1.27 0.24 s-0.61 0.38 -0.81 0.66 s-0.33666 0.61 -0.41 0.99 s-0.11 0.79 -0.11 1.23 l0.04 7.5 c0 0.92 0.17 1.64 0.51 2.16 s0.96334 0.78 1.87 0.78 c0.52 0 0.95 -0.07 1.29 -0.21 s0.60666 -0.33666 0.8 -0.59 s0.33 -0.56 0.41 -0.92 s0.12 -0.75334 0.12 -1.18 l0.02 -1.3 l0.92 0 z M99.2865 20 l-5.8 -12.88 l0 12.88 l-1.1 0 l0 -15 l1.18 0 l5.8 12.3 l0.14 -12.3 l1.08 0 l0 15 l-1.3 0 z M104.38499999999999 20 l0 -15 l7.36 0 l0 1.16 l-6.32 0 l0 5.7 l6.26 0 l0 0.92 l-6.26 0 l0 6.06 l6.46 0 l0 1.16 l-7.5 0 z M122.78349999999999 20 l-3.36 -7.36 l-3.34 7.36 l-1.38 0 l3.64 -7.5 l-3.64 -7.5 l1.38 0 l3.34 7.36 l3.36 -7.36 l1.36 0 l-3.64 7.5 l3.64 7.5 l-1.36 0 z M131.022 20.18 c-1.2267 0 -2.1768 -0.33336 -2.85 -1 s-1.01 -1.6533 -1.01 -2.96 l0 -11.22 l1.08 0 l0 11.16 c0 0.32 0.04334 0.65666 0.13 1.01 s0.23666 0.67334 0.45 0.96 s0.49668 0.52332 0.85002 0.70998 s0.79 0.28 1.31 0.28 c0.57334 0 1.0467 -0.08334 1.42 -0.25 s0.67334 -0.39666 0.9 -0.69 s0.38666 -0.64 0.48 -1.04 s0.14 -0.82666 0.14 -1.28 l0 -10.86 l1.06 0 l0 11.22 c0 1.3333 -0.32334 2.3266 -0.97 2.98 s-1.6433 0.98 -2.99 0.98 z M142.8805 20.18 c-0.65334 0 -1.2335 -0.086738 -1.7401 -0.26008 s-0.93332 -0.45 -1.28 -0.83 s-0.60332 -0.87666 -0.76998 -1.49 s-0.23666 -1.3533 -0.21 -2.22 l1.2 0 c0 0.42666 0.02 0.87 0.06 1.33 s0.14666 0.88 0.32 1.26 s0.43668 0.69 0.79002 0.93 s0.84334 0.36 1.47 0.36 c0.53334 0 0.98668 -0.08 1.36 -0.24 s0.67668 -0.37334 0.91002 -0.64 s0.39668 -0.58 0.49002 -0.94 s0.14 -0.73334 0.14 -1.12 c0 -0.45334 -0.08334 -0.85 -0.25 -1.19 s-0.38666 -0.64334 -0.66 -0.91 s-0.59334 -0.50332 -0.96 -0.70998 s-0.75 -0.39 -1.15 -0.55 c-0.64 -0.25334 -1.2 -0.50334 -1.68 -0.75 s-0.87334 -0.52332 -1.18 -0.82998 s-0.53666 -0.66332 -0.69 -1.07 s-0.23 -0.90332 -0.23 -1.49 c0 -1.3333 0.35 -2.3266 1.05 -2.98 s1.7033 -0.98 3.01 -0.98 c1.1333 0 2.03 0.33 2.69 0.99 s0.99 1.65 0.99 2.97 l0 1.1 l-1.12 0 l0 -1.2 c0 -0.41334 -0.05 -0.79668 -0.15 -1.15 s-0.25666 -0.66334 -0.47 -0.93 s-0.48334 -0.47666 -0.81 -0.63 s-0.71666 -0.23 -1.17 -0.23 c-1.0667 0 -1.83 0.28 -2.29 0.84 s-0.67 1.3133 -0.63 2.26 c0.01334 0.41334 0.09 0.76668 0.23 1.06 s0.32666 0.55 0.56 0.77 s0.51334 0.41666 0.84 0.59 s0.69 0.34668 1.09 0.52002 c0.46666 0.2 0.93 0.41334 1.39 0.64 s0.89 0.50666 1.29 0.84 c0.4 0.34666 0.73 0.75 0.99 1.21 s0.39 1.03 0.39 1.71 c0 1.32 -0.33666 2.31 -1.01 2.97 s-1.61 0.99 -2.81 0.99 z"/></g>
			</g>
		</svg>
	